# xmcd
#
# Track frame offsets: 
#        150
#        13298
#        24206
#        35743
#        48809
#        59055
#        71518
#        85372
#        96043
#        106295
#        118780
#        134062
#        146531
#        162655
#        174412
#        186430
#        198100
#        207766
#        216705
#        229255
#        241840
#        256195
#        269752
#        284135
#
# Disc length: 3958 seconds
#
# Revision: 0
# Processed by: cddbd v1.5.2PL0 Copyright (c) Steve Scherf et al.
# Submitted via: ExactAudioCopyFreeDBPlugin 1.0
#
DISCID=7a0f7418
DTITLE=Frémeaux and Associés - Electric Guitar Story 1935-1962 (Disc2)
DYEAR=2014
DGENRE=Blues
TTITLE0=John Lee Hooker - Johnny lee's original boogie (1948)
TTITLE1=Muddy Waters - Standin' here tramblin'  (1948)
TTITLE2=Hank Garland  - Sugarfoot boogie (1948)
TTITLE3=Sol Hoopii - Honolulu march (1951)
TTITLE4=Chet Atkins - Nobody's sweetheat (1952)
TTITLE5=Otis Blackwell, René Hall - Number 000 (1952)
TTITLE6=Bb King - Blind love (1953)
TTITLE7=Speedy West and Jimmy Bryant - Bryant's bounce (1952)
TTITLE8=Bill Haley And The Saddlemen - Rock the joint  (1952)
TTITLE9=Pete Guitar Lewis - Ooh midnight  (1952)
TTITLE10=Django Reinhardt Et Ses Rythmes - Blues for ike  (1952)
TTITLE11=Roy Brown  - Bootlegin' baby (1953)
TTITLE12=Oscar Moore Quartet - Oscar's blues (1953)
TTITLE13=Guitar Slim And His Band - Guitar slim (1954)
TTITLE14=Little Junior's Blue Flames - Love me baby (1954)
TTITLE15=Pee Wee Crayton  - You know yeah (1954)
TTITLE16=Merle Travis - Saturday night shuffle (1954)
TTITLE17=Elvis Presley  - That's all right (1954)
TTITLE18=Tal Farlow  - Gibson boy (1954)
TTITLE19=Memphis Slim And His House Rocker - Living the live i love (
TTITLE19=1954)
TTITLE20=Lowell Fulson  - Reconsider baby (1954)
TTITLE21=Tiny Grimes And His Rocking Highlanders - Tiny's boogie  (195
TTITLE21=5)
TTITLE22=Elmore James  - Dust my blues (1955)
TTITLE23=Chuck Berry  - Roly poly (1955)
EXTD=
EXTT0=
EXTT1=
EXTT2=
EXTT3=
EXTT4=
EXTT5=
EXTT6=
EXTT7=
EXTT8=
EXTT9=
EXTT10=
EXTT11=
EXTT12=
EXTT13=
EXTT14=
EXTT15=
EXTT16=
EXTT17=
EXTT18=
EXTT19=
EXTT20=
EXTT21=
EXTT22=
EXTT23=
PLAYORDER=
